<?xml version="1.0" encoding="utf-8"?>
<!-- Generator: Adobe Illustrator 19.2.0, SVG Export Plug-In . SVG Version: 6.00 Build 0)  -->
<svg version="1.1" id="Layer_1" xmlns="http://www.w3.org/2000/svg" xmlns:xlink="http://www.w3.org/1999/xlink" x="0px" y="0px"
	 viewBox="0 0 141.9 143" style="enable-background:new 0 0 141.9 143;" xml:space="preserve">
<style type="text/css">
	.st0{fill:none;}
	.st1{fill:#232D38;}
</style>
<line class="st0" x1="103.6" y1="138.7" x2="101.2" y2="142.8"/>
<polygon class="st1" points="48.2,83.1 56.3,83.1 68.3,83.1 73.7,83.1 82,83.1 90,83.1 97.3,83.1 105.7,83.1 113.7,83.1 121,83.1 
	129.7,83.1 135.2,83.1 138.4,77.5 141.9,71.5 137.7,64.3 135.2,59.9 125.3,59.9 118.7,59.9 111.7,59.9 103.6,59.9 95.7,59.9 
	88.7,59.9 81.3,59.9 75,59.9 68,59.9 62,59.9 54.7,59.9 48.2,59.9 53.7,54.3 59.5,48.5 65.4,42.4 70.9,36.8 77,30.6 83.6,23.9 
	90.4,17 96.8,10.5 103,4.2 100.6,0.2 90.3,0.1 79.3,0.1 71.8,0 63.4,8.4 55,16.7 47.3,24.3 39.5,32.2 30.6,41 22,49.6 13.8,57.8 
	6.4,65.1 0,71.5 8.6,80.1 18,89.4 27.6,99 35.8,107.2 44.8,116.2 55.7,127 63,134.3 71.8,143 80.7,142.9 92,142.9 100.6,142.8 
	103,138.8 97.5,133.2 92.2,127.8 86.2,121.8 80.8,116.2 73.7,109 67.2,102.4 63.3,98.4 58.1,93.2 53.5,88.5 "/>
</svg>
